HIERARCHY
ROOT Hips
{
	OFFSET 0.00 0.00 0.00
	CHANNELS 6 Xposition Yposition Zposition Xrotation Yrotation Zrotation
	JOINT Spine
	{
		OFFSET 0.00000 7.06766 0.00000
		CHANNELS 3 Xrotation Yrotation Zrotation
		JOINT Head
		{
			OFFSET 0.00000 15.03989 0.00000
			CHANNELS 3 Xrotation Yrotation Zrotation
			End Site
			{
				OFFSET 0.00000 4.52755 0.00000
			}
		}
		JOINT LeftShoulder
		{
			OFFSET 0.00000 10.53037 0.00000
			CHANNELS 3 Xrotation Yrotation Zrotation
			JOINT LeftArm
			{
				OFFSET 7.02886 0.00000 0.00000
				CHANNELS 3 Xrotation Yrotation Zrotation
				JOINT LeftForeArm
				{
					OFFSET 10.79770 0.00000 0.00000
					CHANNELS 3 Yrotation Zrotation Xrotation
					JOINT LeftHand
					{
						OFFSET 7.90744 0.00000 0.00000
						CHANNELS 3 Xrotation Yrotation Zrotation
						JOINT LeftHandThumb1
						{
							OFFSET 0.00000 0.00000 0.00000
							CHANNELS 3 Xrotation Zrotation Yrotation
							End Site
							{
								OFFSET 0.00000 0.00000 3.93700
							}
						}
						End Site
						{
							OFFSET 3.93700 0.00000 0.00000
						}
					}
				}
			}
		}
		JOINT RightShoulder
		{
			OFFSET 0.00000 10.53037 0.00000
			CHANNELS 3 Xrotation Yrotation Zrotation
			JOINT RightArm
			{
				OFFSET -7.02886 0.00000 0.00000
				CHANNELS 3 Xrotation Yrotation Zrotation
				JOINT RightForeArm
				{
					OFFSET -10.79770 0.00000 0.00000
					CHANNELS 3 Yrotation Zrotation Xrotation
					JOINT RightHand
					{
						OFFSET -7.90744 0.00000 0.00000
						CHANNELS 3 Xrotation Yrotation Zrotation
						JOINT RightHandThumb1
						{
							OFFSET 0.00000 0.00000 0.00000
							CHANNELS 3 Xrotation Zrotation Yrotation
							End Site
							{
								OFFSET 0.00000 0.00000 3.93700
							}
						}
						End Site
						{
							OFFSET -3.93700 0.00000 0.00000
						}
					}
				}
			}
		}
	}
	JOINT LeftUpLeg
	{
		OFFSET 4.01300 0.00000 0.00000
		CHANNELS 3 Xrotation Yrotation Zrotation
		JOINT LeftLeg
		{
			OFFSET 0.00000 -16.89976 0.00000
			CHANNELS 3 Xrotation Yrotation Zrotation
			JOINT LeftFoot
			{
				OFFSET 0.00000 -17.38918 0.00000
				CHANNELS 3 Xrotation Yrotation Zrotation
				JOINT LeftToeBase
				{
					OFFSET 0.00000 -1.27456 4.75673
					CHANNELS 3 Xrotation Yrotation Zrotation
					End Site
					{
						OFFSET 0.00000 0.00000 2.95275
					}
				}
			}
		}
	}
	JOINT RightUpLeg
	{
		OFFSET -4.01300 0.00000 0.00000
		CHANNELS 3 Xrotation Yrotation Zrotation
		JOINT RightLeg
		{
			OFFSET 0.00000 -16.89976 0.00000
			CHANNELS 3 Xrotation Yrotation Zrotation
			JOINT RightFoot
			{
				OFFSET 0.00000 -17.38918 0.00000
				CHANNELS 3 Xrotation Yrotation Zrotation
				JOINT RightToeBase
				{
					OFFSET 0.00000 -1.27456 4.75673
					CHANNELS 3 Xrotation Yrotation Zrotation
					End Site
					{
						OFFSET 0.00000 0.00000 2.95275
					}
				}
			}
		}
	}
}
MOTION
Frames: 7
Frame Time: 0.008333
 19.3478 36.7496 -19.2348 115.9627 -37.3475 104.2484 -31.5617 -10.5909 -2.8227 -18.0651 17.6592 22.9235 -25.3034 10.6039 4.1390 10.1382 -5.0710 -54.0185 -5.4354 -0.0000 2.2962 0.0312 0.5206 -3.4309 33.1476 -0.0000 26.2537 25.1068 -19.9846 4.0154 4.4604 -13.3391 63.7155 9.7442 -0.0000 44.6663 1.5185 -3.1363 25.8521 32.8623 0.0000 -24.3270 -46.6975 12.0261 7.7435 -7.1222 0.0000 0.0000 -14.8583 28.9328 5.7978 19.1103 0.0000 -0.0000 7.6045 3.6522 -8.2305 129.2530 0.0000 0.0000 9.0230 -37.5458 -8.1511 22.0853 -0.0000 -0.0000
 19.4090 36.7778 -19.2415 116.3014 -36.8853 104.2555 -31.5378 -10.6006 -2.6469 -18.3578 17.7762 23.1351 -25.3459 10.5566 4.2038 10.1217 -5.3743 -53.9227 -5.3805 -0.0000 2.1860 0.0286 0.4872 -3.3577 33.1476 -0.0000 26.2537 25.0470 -20.0042 4.0546 4.3522 -13.3794 63.4481 9.8137 -0.0000 44.6964 1.5284 -3.1532 25.8773 32.8623 0.0000 -24.3270 -47.2511 12.0977 8.1945 -7.1408 -0.0000 -0.0000 -14.7892 29.0175 5.8410 19.1153 -0.0000 0.0000 7.5799 3.8988 -8.3136 129.1902 0.0000 -0.0000 9.1834 -37.4881 -8.0435 22.1655 -0.0000 0.0000
 19.4684 36.8060 -19.2465 116.6409 -36.4172 104.3017 -31.5582 -10.5791 -2.5261 -18.6308 17.9712 23.4673 -25.2694 10.4902 4.2630 9.9533 -5.6089 -53.8321 -5.2800 -0.0000 2.2238 0.0346 0.5882 -3.3679 33.1476 -0.0000 26.2537 25.0601 -20.0142 4.1146 4.2609 -13.3317 63.2062 9.8842 -0.0000 44.8218 1.5253 -3.1425 25.9081 32.8623 0.0000 -24.3270 -47.7932 12.1977 8.6238 -7.1637 0.0000 0.0000 -14.7180 29.1014 5.8306 19.1679 -0.0000 -0.0000 7.5500 4.1402 -8.4379 129.1177 -0.0000 0.0000 9.3059 -37.4687 -8.0492 22.2129 -0.0000 -0.0000
 19.5277 36.8342 -19.2525 116.9735 -35.9512 104.3472 -31.5978 -10.5584 -2.4410 -18.8501 18.0854 23.7713 -25.2467 10.3934 4.3244 9.9446 -5.8583 -53.6962 -5.2755 -0.0000 2.0037 0.0289 0.4820 -3.4266 33.1476 -0.0000 26.2537 25.0554 -19.9941 4.1660 4.0801 -13.4340 62.9443 9.8632 -0.0000 44.6820 1.5157 -3.1167 25.9508 32.8623 0.0000 -24.3270 -48.3456 12.2945 9.0602 -7.1607 0.0000 0.0000 -14.6451 29.1590 5.8064 19.1945 -0.0000 -0.0000 7.5218 4.3977 -8.5822 129.0969 -0.0000 0.0000 9.3207 -37.2749 -8.1337 22.1593 -0.0000 -0.0000
 19.5873 36.8642 -19.2573 117.2623 -35.4650 104.3475 -31.6740 -10.5643 -2.3421 -19.0805 18.2193 24.0930 -25.2303 10.3029 4.3952 9.8136 -5.9634 -53.6015 -5.2495 -0.0000 2.1549 0.0319 0.5210 -3.5015 33.1476 -0.0000 26.2537 25.0592 -20.0168 4.1959 3.9731 -13.4608 62.7268 9.9284 -0.0000 44.9716 1.4884 -3.0620 25.9395 32.8623 0.0000 -24.3270 -48.9376 12.3494 9.4942 -7.1341 -0.0000 -0.0000 -14.5515 29.2106 5.7320 19.2320 0.0000 -0.0000 7.4509 4.5574 -8.7090 128.9810 -0.0000 -0.0000 9.4164 -37.4444 -8.1280 22.0137 0.0000 0.0000
 19.6451 36.8911 -19.2624 117.5262 -35.0534 104.3665 -31.6752 -10.5539 -2.3061 -19.3218 18.3136 24.4246 -25.2893 10.1807 4.4427 9.7290 -6.0368 -53.4643 -5.2120 -0.0000 2.2119 0.0307 0.4930 -3.5608 33.1476 -0.0000 26.2537 24.9842 -20.0406 4.2225 3.7815 -13.7076 62.4983 9.9057 -0.0000 45.3542 1.4378 -2.9546 25.9634 32.8623 0.0000 -24.3270 -49.4429 12.4088 9.8780 -7.1161 0.0000 0.0000 -14.4479 29.2440 5.6468 19.2623 0.0000 -0.0000 7.4706 4.6948 -8.8491 128.8599 -0.0000 -0.0000 9.4718 -37.6142 -8.0187 22.0900 0.0000 -0.0000
 19.7021 36.9194 -19.2668 117.7368 -34.5892 104.3536 -31.7720 -10.5770 -2.2741 -19.5614 18.4859 24.7735 -25.3637 10.0405 4.4865 9.7665 -6.1358 -53.3167 -5.1969 -0.0000 2.0996 0.0324 0.5377 -3.4471 33.1476 -0.0000 26.2537 25.0782 -20.1251 4.2634 3.5225 -13.7385 62.2893 9.9411 -0.0000 45.1994 1.4833 -3.0319 26.0845 32.8623 0.0000 -24.3270 -50.0262 12.5141 10.2403 -7.0911 -0.0000 -0.0000 -14.3425 29.2469 5.4587 19.4144 -0.0000 -0.0000 7.4207 4.7907 -9.0024 128.7480 -0.0000 -0.0000 9.4549 -37.6736 -8.0405 22.1042 0.0000 -0.0000
